# xmcd
#
# Track frame offsets:
#	150
#	26775
#	43725
#	74250
#	113005
#	148067
#	175895
#	197210
#
# Disc length: 3415 seconds
#
# Revision: 0
# Processed by: cddbd v1.5.1PL0 Copyright (c) Steve Scherf et al.
# Submitted via: dBpowerAMP V4.0
#
DISCID=750d5508
DTITLE=Arthur - Right Off
DYEAR=1994
DGENRE=Indie
TTITLE0=Space Is The Place
TTITLE1=Above The Law
TTITLE2=Garnish Fantasy
TTITLE3=Lose Your Mind
TTITLE4=Arthur's Mood
TTITLE5=On The Reach
TTITLE6=Messin' My Mind
TTITLE7=Brother I've Gots To Know
EXTD=
EXTT0=
EXTT1=
EXTT2=
EXTT3=
EXTT4=
EXTT5=
EXTT6=
EXTT7=
PLAYORDER=
